{"asset":{"version":"2.0","generator":"babylon.js glTF exporter for 3dsmax 2019 v20210401.5"},"scene":0,"scenes":[{"nodes":[0,1,2,3,4,5,6,7,8,9,10,11,12,13,14,15,16,17,18]}],"nodes":[{"mesh":0,"translation":[-7.55553627,0,-6.24615955],"rotation":[0,-1,0,7.54979e-8],"name":"Box001"},{"mesh":1,"translation":[-4.16663647,0.143669426,1.60742044],"rotation":[0,-1,0,7.54978942e-8],"scale":[1.136383,1.731445,0.860723],"name":"Glas raam hoek woning"},{"mesh":2,"translation":[-4.9884367,0.143669859,1.60741973],"rotation":[0,-1,0,7.54978942e-8],"scale":[1.136383,1.731445,0.860723],"name":"Glas raam hoek woning001"},{"mesh":3,"translation":[-7.19663668,0.14366962,1.607422],"rotation":[0,-1,0,7.54978942e-8],"scale":[1.136383,1.731445,0.860723],"name":"Glas raam hoek woning002"},{"mesh":4,"translation":[-8.018436,0.143670052,1.60742128],"rotation":[0,-1,0,7.54978942e-8],"scale":[1.136383,1.731445,0.860723],"name":"Glas raam hoek woning003"},{"mesh":5,"translation":[-1.17594993,0.14366807,-7.1468854],"rotation":[0,0.6059884,0,0.795473456],"scale":[1.136383,1.731445,0.8607231],"name":"Deur frame balkon001"},{"mesh":6,"translation":[-7.52653646,0.143668458,-6.24615765],"rotation":[-0.7071068,0,-0.7071067,0],"scale":[1,-1,1],"name":"Voordeur001"},{"mesh":7,"translation":[-6.988538,0.143668547,-5.48415947],"rotation":[0,-1,0,1.62920685e-7],"name":"Voordeur002"},{"mesh":8,"translation":[-6.198539,0.143668354,-7.123159],"rotation":[1.62920685e-7,0,1,0],"scale":[1,-1,1],"name":"Voordeur003"},{"mesh":9,"translation":[-4.57153654,0.143668741,-2.59615827],"rotation":[-0.707106948,0,-0.7071066,0],"scale":[1,-1,1],"name":"Voordeur004"},{"mesh":10,"translation":[-7.55553627,0,-6.24615955],"rotation":[0,-1,0,7.54979e-8],"name":"Object001"},{"mesh":11,"translation":[-1.48907387,0.14366962,0.00244403677],"rotation":[0,0.6059884,0,0.795473456],"scale":[1.136383,1.731445,0.8607231],"name":"Glas raam hoek woning004"},{"mesh":12,"translation":[-1.27083826,0.143670052,-0.789850235],"rotation":[0,0.6059884,0,0.795473456],"scale":[1.136383,1.731445,0.8607231],"name":"Glas raam hoek woning005"},{"mesh":13,"translation":[-0.5476875,0.143669039,-3.41527724],"rotation":[0,0.6059884,0,0.795473456],"scale":[1.136383,1.731445,0.8607231],"name":"Glas raam hoek woning006"},{"mesh":14,"translation":[-0.329451978,0.143669471,-4.20757151],"rotation":[0,0.6059884,0,0.795473456],"scale":[1.136383,1.731445,0.8607231],"name":"Glas raam hoek woning007"},{"mesh":15,"translation":[-7.55553627,0,-6.24615955],"rotation":[0,-1,0,7.54979e-8],"name":"Object002"},{"mesh":16,"translation":[-1.17594993,0.14366807,-7.1468854],"rotation":[0,0.6059884,0,0.795473456],"scale":[1.136383,1.731445,0.8607231],"name":"Object003"},{"mesh":17,"translation":[-7.5845356,0.143668845,-3.29515934],"rotation":[-0.7071068,0,-0.7071067,0],"scale":[1,-1,1],"name":"Voordeur005"},{"mesh":18,"translation":[-7.584537,0.143668845,-4.10116],"rotation":[0,0.7071068,0,0.7071067],"name":"Voordeur006"}],"meshes":[{"primitives":[{"attributes":{"POSITION":1,"NORMAL":2,"TEXCOORD_0":3},"indices":0,"material":0}],"name":"Box001"},{"primitives":[{"attributes":{"POSITION":5,"NORMAL":6,"TEXCOORD_0":7},"indices":4,"material":1}],"name":"Glas raam hoek woning"},{"primitives":[{"attributes":{"POSITION":9,"NORMAL":10,"TEXCOORD_0":11},"indices":8,"material":1}],"name":"Glas raam hoek woning001"},{"primitives":[{"attributes":{"POSITION":13,"NORMAL":14,"TEXCOORD_0":15},"indices":12,"material":1}],"name":"Glas raam hoek woning002"},{"primitives":[{"attributes":{"POSITION":17,"NORMAL":18,"TEXCOORD_0":19},"indices":16,"material":1}],"name":"Glas raam hoek woning003"},{"primitives":[{"attributes":{"POSITION":21,"NORMAL":22,"TEXCOORD_0":23},"indices":20,"material":0}],"name":"Deur frame balkon001"},{"primitives":[{"attributes":{"POSITION":25,"NORMAL":26,"TEXCOORD_0":27},"indices":24,"material":0}],"name":"Voordeur001"},{"primitives":[{"attributes":{"POSITION":29,"NORMAL":30,"TEXCOORD_0":31},"indices":28,"material":0}],"name":"Voordeur002"},{"primitives":[{"attributes":{"POSITION":33,"NORMAL":34,"TEXCOORD_0":35},"indices":32,"material":0}],"name":"Voordeur003"},{"primitives":[{"attributes":{"POSITION":37,"NORMAL":38,"TEXCOORD_0":39},"indices":36,"material":0}],"name":"Voordeur004"},{"primitives":[{"attributes":{"POSITION":41,"NORMAL":42,"TEXCOORD_0":43},"indices":40,"material":0}],"name":"Object001"},{"primitives":[{"attributes":{"POSITION":45,"NORMAL":46,"TEXCOORD_0":47},"indices":44,"material":1}],"name":"Glas raam hoek woning004"},{"primitives":[{"attributes":{"POSITION":49,"NORMAL":50,"TEXCOORD_0":51},"indices":48,"material":1}],"name":"Glas raam hoek woning005"},{"primitives":[{"attributes":{"POSITION":53,"NORMAL":54,"TEXCOORD_0":55},"indices":52,"material":1}],"name":"Glas raam hoek woning006"},{"primitives":[{"attributes":{"POSITION":57,"NORMAL":58,"TEXCOORD_0":59},"indices":56,"material":1}],"name":"Glas raam hoek woning007"},{"primitives":[{"attributes":{"POSITION":61,"NORMAL":62,"TEXCOORD_0":63},"indices":60,"material":1}],"name":"Object002"},{"primitives":[{"attributes":{"POSITION":65,"NORMAL":66,"TEXCOORD_0":67},"indices":64,"material":1}],"name":"Object003"},{"primitives":[{"attributes":{"POSITION":69,"NORMAL":70,"TEXCOORD_0":71},"indices":68,"material":0}],"name":"Voordeur005"},{"primitives":[{"attributes":{"POSITION":73,"NORMAL":74,"TEXCOORD_0":75},"indices":72,"material":0}],"name":"Voordeur006"}],"accessors":[{"bufferView":0,"componentType":5123,"count":8136,"type":"SCALAR","name":"accessorIndices"},{"bufferView":1,"componentType":5126,"count":8136,"max":[1.153,3.14366984,3.31899977],"min":[-8.614239,0,-8.28318],"type":"VEC3","name":"accessorPositions"},{"bufferView":1,"byteOffset":97632,"componentType":5126,"count":8136,"type":"VEC3","name":"accessorNormals"},{"bufferView":2,"componentType":5126,"count":8136,"type":"VEC2","name":"accessorUVs"},{"bufferView":0,"byteOffset":16272,"componentType":5123,"count":24,"type":"SCALAR","name":"accessorIndices"},{"bufferView":1,"byteOffset":195264,"componentType":5126,"count":24,"max":[-0.0467346758,1.34483826,0.0477083325],"min":[-0.681893468,0.0526910163,-0.04770964],"type":"VEC3","name":"accessorPositions"},{"bufferView":1,"byteOffset":195552,"componentType":5126,"count":24,"type":"VEC3","name":"accessorNormals"},{"bufferView":2,"byteOffset":65088,"componentType":5126,"count":24,"type":"VEC2","name":"accessorUVs"},{"bufferView":0,"byteOffset":16320,"componentType":5123,"count":24,"type":"SCALAR","name":"accessorIndices"},{"bufferView":1,"byteOffset":195840,"componentType":5126,"count":24,"max":[-0.0467346758,1.34483826,0.0477083325],"min":[-0.681893468,0.0526910163,-0.04770964],"type":"VEC3","name":"accessorPositions"},{"bufferView":1,"byteOffset":196128,"componentType":5126,"count":24,"type":"VEC3","name":"accessorNormals"},{"bufferView":2,"byteOffset":65280,"componentType":5126,"count":24,"type":"VEC2","name":"accessorUVs"},{"bufferView":0,"byteOffset":16368,"componentType":5123,"count":24,"type":"SCALAR","name":"accessorIndices"},{"bufferView":1,"byteOffset":196416,"componentType":5126,"count":24,"max":[-0.0467346758,1.34483826,0.0477083325],"min":[-0.681893468,0.0526910163,-0.04770964],"type":"VEC3","name":"accessorPositions"},{"bufferView":1,"byteOffset":196704,"componentType":5126,"count":24,"type":"VEC3","name":"accessorNormals"},{"bufferView":2,"byteOffset":65472,"componentType":5126,"count":24,"type":"VEC2","name":"accessorUVs"},{"bufferView":0,"byteOffset":16416,"componentType":5123,"count":24,"type":"SCALAR","name":"accessorIndices"},{"bufferView":1,"byteOffset":196992,"componentType":5126,"count":24,"max":[-0.0467346758,1.34483826,0.0477083325],"min":[-0.681893468,0.0526910163,-0.04770964],"type":"VEC3","name":"accessorPositions"},{"bufferView":1,"byteOffset":197280,"componentType":5126,"count":24,"type":"VEC3","name":"accessorNormals"},{"bufferView":2,"byteOffset":65664,"componentType":5126,"count":24,"type":"VEC2","name":"accessorUVs"},{"bufferView":0,"byteOffset":16464,"componentType":5123,"count":144,"type":"SCALAR","name":"accessorIndices"},{"bufferView":1,"byteOffset":197568,"componentType":5126,"count":144,"max":[0.185213834,1.37790632,0.0477083959],"min":[-0.7226376,0.0526913069,-0.04770846],"type":"VEC3","name":"accessorPositions"},{"bufferView":1,"byteOffset":199296,"componentType":5126,"count":144,"type":"VEC3","name":"accessorNormals"},{"bufferView":2,"byteOffset":65856,"componentType":5126,"count":144,"type":"VEC2","name":"accessorUVs"},{"bufferView":0,"byteOffset":16752,"componentType":5123,"count":168,"type":"SCALAR","name":"accessorIndices"},{"bufferView":1,"byteOffset":201024,"componentType":5126,"count":168,"max":[0.492,2.17,0.00399999972],"min":[-0.492,0,-0.00399999972],"type":"VEC3","name":"accessorPositions"},{"bufferView":1,"byteOffset":203040,"componentType":5126,"count":168,"type":"VEC3","name":"accessorNormals"},{"bufferView":2,"byteOffset":67008,"componentType":5126,"count":168,"type":"VEC2","name":"accessorUVs"},{"bufferView":0,"byteOffset":17088,"componentType":5123,"count":168,"type":"SCALAR","name":"accessorIndices"},{"bufferView":1,"byteOffset":205056,"componentType":5126,"count":168,"max":[0.492,2.17000055,0.00399999972],"min":[-0.288000733,0,-0.00400035176],"type":"VEC3","name":"accessorPositions"},{"bufferView":1,"byteOffset":207072,"componentType":5126,"count":168,"type":"VEC3","name":"accessorNormals"},{"bufferView":2,"byteOffset":68352,"componentType":5126,"count":168,"type":"VEC2","name":"accessorUVs"},{"bufferView":0,"byteOffset":17424,"componentType":5123,"count":168,"type":"SCALAR","name":"accessorIndices"},{"bufferView":1,"byteOffset":209088,"componentType":5126,"count":168,"max":[0.492,2.17000055,0.004000048],"min":[-0.358001679,0,-0.00399999972],"type":"VEC3","name":"accessorPositions"},{"bufferView":1,"byteOffset":211104,"componentType":5126,"count":168,"type":"VEC3","name":"accessorNormals"},{"bufferView":2,"byteOffset":69696,"componentType":5126,"count":168,"type":"VEC2","name":"accessorUVs"},{"bufferView":0,"byteOffset":17760,"componentType":5123,"count":168,"type":"SCALAR","name":"accessorIndices"},{"bufferView":1,"byteOffset":213120,"componentType":5126,"count":168,"max":[0.492,2.17000055,0.004000048],"min":[-0.358001679,0,-0.00399999972],"type":"VEC3","name":"accessorPositions"},{"bufferView":1,"byteOffset":215136,"componentType":5126,"count":168,"type":"VEC3","name":"accessorNormals"},{"bufferView":2,"byteOffset":71040,"componentType":5126,"count":168,"type":"VEC2","name":"accessorUVs"},{"bufferView":0,"byteOffset":18096,"componentType":5123,"count":1620,"type":"SCALAR","name":"accessorIndices"},{"bufferView":1,"byteOffset":217152,"componentType":5126,"count":1620,"max":[1.153,3.39366984,3.31899977],"min":[-8.614239,3.14366865,-8.283169],"type":"VEC3","name":"accessorPositions"},{"bufferView":1,"byteOffset":236592,"componentType":5126,"count":1620,"type":"VEC3","name":"accessorNormals"},{"bufferView":2,"byteOffset":72384,"componentType":5126,"count":1620,"type":"VEC2","name":"accessorUVs"},{"bufferView":0,"byteOffset":21336,"componentType":5123,"count":24,"type":"SCALAR","name":"accessorIndices"},{"bufferView":1,"byteOffset":256032,"componentType":5126,"count":24,"max":[-0.0467346758,1.34483826,0.0477121137],"min":[-0.7179725,0.05269121,-0.047708746],"type":"VEC3","name":"accessorPositions"},{"bufferView":1,"byteOffset":256320,"componentType":5126,"count":24,"type":"VEC3","name":"accessorNormals"},{"bufferView":2,"byteOffset":85344,"componentType":5126,"count":24,"type":"VEC2","name":"accessorUVs"},{"bufferView":0,"byteOffset":21384,"componentType":5123,"count":24,"type":"SCALAR","name":"accessorIndices"},{"bufferView":1,"byteOffset":256608,"componentType":5126,"count":24,"max":[-0.0106562963,1.344838,0.04770743],"min":[-0.681893468,0.0526909679,-0.0477131642],"type":"VEC3","name":"accessorPositions"},{"bufferView":1,"byteOffset":256896,"componentType":5126,"count":24,"type":"VEC3","name":"accessorNormals"},{"bufferView":2,"byteOffset":85536,"componentType":5126,"count":24,"type":"VEC2","name":"accessorUVs"},{"bufferView":0,"byteOffset":21432,"componentType":5123,"count":24,"type":"SCALAR","name":"accessorIndices"},{"bufferView":1,"byteOffset":257184,"componentType":5126,"count":24,"max":[-0.0467346758,1.34483826,0.0477121137],"min":[-0.7179725,0.05269121,-0.047708746],"type":"VEC3","name":"accessorPositions"},{"bufferView":1,"byteOffset":257472,"componentType":5126,"count":24,"type":"VEC3","name":"accessorNormals"},{"bufferView":2,"byteOffset":85728,"componentType":5126,"count":24,"type":"VEC2","name":"accessorUVs"},{"bufferView":0,"byteOffset":21480,"componentType":5123,"count":24,"type":"SCALAR","name":"accessorIndices"},{"bufferView":1,"byteOffset":257760,"componentType":5126,"count":24,"max":[-0.0106562963,1.344838,0.04770743],"min":[-0.681893468,0.0526909679,-0.0477131642],"type":"VEC3","name":"accessorPositions"},{"bufferView":1,"byteOffset":258048,"componentType":5126,"count":24,"type":"VEC3","name":"accessorNormals"},{"bufferView":2,"byteOffset":85920,"componentType":5126,"count":24,"type":"VEC2","name":"accessorUVs"},{"bufferView":0,"byteOffset":21528,"componentType":5123,"count":12,"type":"SCALAR","name":"accessorIndices"},{"bufferView":1,"byteOffset":258336,"componentType":5126,"count":12,"max":[-6.42245054,2.529439,1.65436065],"min":[-6.62375832,0.234900177,1.18916261],"type":"VEC3","name":"accessorPositions"},{"bufferView":1,"byteOffset":258480,"componentType":5126,"count":12,"type":"VEC3","name":"accessorNormals"},{"bufferView":2,"byteOffset":86112,"componentType":5126,"count":12,"type":"VEC2","name":"accessorUVs"},{"bufferView":0,"byteOffset":21552,"componentType":5123,"count":12,"type":"SCALAR","name":"accessorIndices"},{"bufferView":1,"byteOffset":258624,"componentType":5126,"count":12,"max":[0.127546266,1.33830023,0.0227083918],"min":[-0.66497,0.09229771,-0.0227084532],"type":"VEC3","name":"accessorPositions"},{"bufferView":1,"byteOffset":258768,"componentType":5126,"count":12,"type":"VEC3","name":"accessorNormals"},{"bufferView":2,"byteOffset":86208,"componentType":5126,"count":12,"type":"VEC2","name":"accessorUVs"},{"bufferView":0,"byteOffset":21576,"componentType":5123,"count":168,"type":"SCALAR","name":"accessorIndices"},{"bufferView":1,"byteOffset":258912,"componentType":5126,"count":168,"max":[0.492,2.17,0.00399999972],"min":[-0.4030002,-1.93786619e-7,-0.00400072755],"type":"VEC3","name":"accessorPositions"},{"bufferView":1,"byteOffset":260928,"componentType":5126,"count":168,"type":"VEC3","name":"accessorNormals"},{"bufferView":2,"byteOffset":86304,"componentType":5126,"count":168,"type":"VEC2","name":"accessorUVs"},{"bufferView":0,"byteOffset":21912,"componentType":5123,"count":168,"type":"SCALAR","name":"accessorIndices"},{"bufferView":1,"byteOffset":262944,"componentType":5126,"count":168,"max":[0.492,2.17,0.00399999972],"min":[-0.4030002,-1.93786619e-7,-0.00400072755],"type":"VEC3","name":"accessorPositions"},{"bufferView":1,"byteOffset":264960,"componentType":5126,"count":168,"type":"VEC3","name":"accessorNormals"},{"bufferView":2,"byteOffset":87648,"componentType":5126,"count":168,"type":"VEC2","name":"accessorUVs"}],"bufferViews":[{"buffer":0,"byteLength":22248,"name":"bufferViewScalar"},{"buffer":0,"byteOffset":22248,"byteLength":266976,"byteStride":12,"name":"bufferViewFloatVec3"},{"buffer":0,"byteOffset":289224,"byteLength":88992,"byteStride":8,"name":"bufferViewFloatVec2"}],"buffers":[{"uri":"data:application/octet-stream;base64,","byteLength":378216}],"materials":[{"pbrMetallicRoughness":{"baseColorFactor":[0.815686345,0.815686345,0.815686345,1],"metallicFactor":0,"roughnessFactor":0.450053632},"name":"02 - Default"},{"pbrMetallicRoughness":{"baseColorFactor":[0.588,0.588,0.588,1],"metallicFactor":0,"roughnessFactor":0.450053632},"name":"01 - Default"}]}